nColumns=19
nRows=49
DataType=double
version=3
OpenSimVersion=4.1
endheader
time	ground_force_calcn_r_vx	ground_force_calcn_r_vy	ground_force_calcn_r_vz	ground_force_calcn_r_px	ground_force_calcn_r_py	ground_force_calcn_r_pz	ground_force_calcn_r_mx	ground_force_calcn_r_my	ground_force_calcn_r_mz	ground_force_calcn_l_vx	ground_force_calcn_l_vy	ground_force_calcn_l_vz	ground_force_calcn_l_px	ground_force_calcn_l_py	ground_force_calcn_l_pz	ground_force_calcn_l_mx	ground_force_calcn_l_my	ground_force_calcn_l_mz
1.965	118.499	827.758	-41.2692	1.65633	0	-0.388398	-0.323593	-2.26042	0.112697	-5.91289	7.0146	-3.6982	2.12236	0	-0.558482	-6.677e-09	7.92109e-09	-4.17611e-09
1.97	122.37	815.579	-41.0958	1.65814	0	-0.389698	-0.302194	-2.01408	0.101487	-10.834	18.9155	-13.4207	2.1225	0	-0.55778	-2.74932e-08	4.80013e-08	-3.40574e-08
1.975	125.529	800.083	-39.5296	1.66004	0	-0.391032	-0.274963	-1.75252	0.0865865	-0.924217	40.445	-22.8666	2.12233	0	-0.558053	-9.98331e-08	4.36883e-06	-2.47003e-06
1.98	128.592	781.358	-38.2363	1.66199	0	-0.392298	-0.260895	-1.58526	0.0775761	14.4459	86.2272	-30.0589	2.12301	0	-0.558139	1.12307e-05	6.70355e-05	-2.33687e-05
1.985	131.497	759.417	-37.0977	1.66393	0	-0.393398	-0.274191	-1.5835	0.0773544	9.28069	198.176	-36.9777	2.12359	0	-0.557953	2.71706e-05	0.000580189	-0.000108258
1.99	133.653	734.157	-35.4324	1.66588	0	-0.394242	-0.310836	-1.70743	0.0824051	-17.0829	328.863	-36.808	2.12403	0	-0.557746	-0.000190766	0.00367244	-0.000411038
1.995	135.427	705.757	-34.2453	1.66787	0	-0.394857	-0.354462	-1.84723	0.0896326	-29.8473	424.731	-42.3784	2.12469	0	-0.557677	-0.00128641	0.0183058	-0.00182649
2	137.071	673.066	-32.7789	1.66995	0	-0.395276	-0.387734	-1.9039	0.0927217	-49.8741	481.835	-41.6396	2.1254	0	-0.55766	-0.00725701	0.0701101	-0.00605884
2.005	137.863	635.081	-30.3484	1.67224	0	-0.395488	-0.402034	-1.85202	0.088502	-66.6434	516.863	-37.7298	2.1264	0	-0.557809	-0.0258682	0.200625	-0.0146451
2.01	137.354	593.413	-27.766	1.67483	0	-0.395522	-0.397959	-1.71931	0.0804472	-81.2938	541.379	-33.1542	2.12787	0	-0.558284	-0.0656475	0.437182	-0.0267731
2.015	135.312	549.632	-24.558	1.6778	0	-0.395371	-0.377888	-1.53496	0.0685834	-92.9102	563.52	-26.6576	2.12988	0	-0.559106	-0.121062	0.734263	-0.0347348
2.02	130.8	503.675	-20.8794	1.6812	0	-0.394918	-0.343775	-1.32378	0.0548762	-101.698	584.57	-18.7677	2.13217	0	-0.560101	-0.171998	0.988666	-0.0317413
2.025	125.434	452.513	-16.89	1.68541	0	-0.394236	-0.292987	-1.05698	0.0394515	-107.678	608.686	-9.94663	2.13537	0	-0.561661	-0.235924	1.33365	-0.0217933
2.03	119.246	391.096	-12.2712	1.69116	0	-0.393353	-0.222006	-0.728121	0.0228459	-113.949	646.964	-0.335279	2.14081	0	-0.564576	-0.323311	1.83566	-0.000951301
2.035	107.333	318.034	-8.20201	1.69953	0	-0.392201	-0.127678	-0.378319	0.00975674	-120.491	689.663	10.5038	2.14757	0	-0.568167	-0.377506	2.16076	0.0329092
2.04	90.9452	242.143	-4.73556	1.7119	0	-0.390751	-0.0295399	-0.0786505	0.00153816	-128.203	724.272	20.3114	2.15456	0	-0.571725	-0.42388	2.39468	0.067156
2.045	79.6131	206.161	1.18459	1.71565	0	-0.392645	-0.00422137	-0.0109314	-6.28111e-05	-134.011	747.184	29.0655	2.16137	0	-0.574872	-0.469022	2.61505	0.101725
2.05	72.6085	183.933	4.58816	1.71674	0	-0.393559	0.00023226	0.000588364	1.46766e-05	-138.173	763.543	36.3693	2.16849	0	-0.577598	-0.506423	2.79849	0.133299
2.055	67.0194	174.239	6.83326	1.7173	0	-0.393449	4.91792e-05	0.000127858	5.01427e-06	-142.686	783.259	42.8761	2.17713	0	-0.58026	-0.503057	2.76148	0.151165
2.06	56.0943	165.116	8.49798	1.71786	0	-0.393397	1.01539e-05	2.98885e-05	1.53827e-06	-144.533	798.193	47.9931	2.18645	0	-0.582634	-0.449597	2.48294	0.149292
2.065	47.5038	153.083	7.95765	1.7186	0	-0.393396	8.24756e-07	2.65781e-06	1.3816e-07	-144.025	803.761	51.9296	2.19562	0	-0.584522	-0.413288	2.30643	0.149014
2.07	37.5299	135.793	7.84018	1.71946	0	-0.393382	1.31845e-08	4.77048e-08	2.7543e-09	-143.137	806.54	56.1413	2.20419	0	-0.585664	-0.393434	2.2169	0.154313
2.075	29.314	113.509	6.31199	1.72051	0	-0.393406	3.77238e-11	1.46073e-10	8.12283e-12	-140.988	810.574	59.6751	2.2116	0	-0.586096	-0.399027	2.29411	0.168894
2.08	21.9553	89.1427	3.78482	1.72172	0	-0.393478	2.54671e-14	1.03401e-13	4.39019e-15	-138.328	817.371	63.5641	2.21791	0	-0.586072	-0.418913	2.47533	0.192498
2.085	10.5911	62.3044	5.20347	1.7229	0	-0.393432	-1.718e-16	-1.01065e-15	-8.44065e-17	-136.308	827.616	66.3612	2.22336	0	-0.585734	-0.444842	2.70093	0.21657
2.09	-5.30227	31.0289	8.78138	1.7239	0	-0.393229	-1.65118e-16	9.6627e-16	2.73461e-16	-134.164	841.039	68.2171	2.22786	0	-0.585199	-0.452046	2.83376	0.229848
2.095	-2.43421	3.1381	1.59629	1.72564	0	-0.393555	7.15225e-17	-9.22043e-17	-4.69026e-17	-131.865	856.82	69.254	2.23137	0	-0.584651	-0.42293	2.74808	0.222118
2.1	0.0968865	-0.103776	-0.0446179	1.72959	0	-0.394757	-8.08406e-18	8.6589e-18	3.72285e-18	-130.03	869.895	68.5893	2.23423	0	-0.584203	-0.381823	2.55437	0.201407
2.105	0.0864495	-0.0844779	-0.0322649	1.73456	0	-0.395976	-3.51608e-18	3.4359e-18	1.31228e-18	-128.003	878.192	66.5681	2.2368	0	-0.583864	-0.356179	2.44364	0.185231
2.11	-1.00964	0.905313	0.312527	1.74028	0	-0.397163	-8.05477e-17	7.22244e-17	2.49329e-17	-125.454	884.412	64.1079	2.23916	0	-0.583595	-0.332773	2.34595	0.17005
2.115	-0.161535	0.130308	0.0392375	1.74705	0	-0.398327	2.1582e-18	-1.74099e-18	-5.24234e-19	-122.752	889.18	61.3973	2.24126	0	-0.58339	-0.303644	2.19951	0.151875
2.12	-0.00189628	0.00140178	0.000381588	1.75499	0	-0.399503	-3.42429e-18	2.53133e-18	6.8907e-19	-119.733	891.049	58.8658	2.24314	0	-0.583266	-0.280358	2.08642	0.137836
2.125	-0.119186	0.0825568	0.0213352	1.76387	0	-0.400715	-2.93524e-17	2.03316e-17	5.2543e-18	-116.351	889.96	56.8799	2.24493	0	-0.583207	-0.259961	1.98842	0.127086
2.13	-0.129426	0.0842525	0.0210361	1.77364	0	-0.401959	-2.85766e-16	1.86025e-16	4.64466e-17	-112.818	886.557	55.5346	2.24669	0	-0.583188	-0.236831	1.86108	0.116579
2.135	-0.0688883	0.0420623	0.010052	1.78442	0	-0.403214	-9.54982e-16	5.831e-16	1.39348e-16	-109.28	881.071	54.6505	2.24843	0	-0.583201	-0.213714	1.72306	0.106877
2.14	-0.0470767	0.0271515	0.00621176	1.79614	0	-0.404474	-3.55508e-15	2.05039e-15	4.69092e-16	-105.837	873.561	54.191	2.25017	0	-0.583239	-0.192417	1.58819	0.0985227
2.145	-0.0367346	0.0201636	0.00445173	1.80869	0	-0.405741	-1.40503e-14	7.71222e-15	1.70271e-15	-102.635	864.126	54.0081	2.25193	0	-0.583302	-0.174526	1.4694	0.091838
2.15	-0.0270008	0.0141612	0.00303476	1.82199	0	-0.407011	1.36132e-14	-7.13978e-15	-1.53006e-15	-99.754	852.971	54.104	2.25369	0	-0.583386	-0.160006	1.36817	0.0867834
2.155	-0.0190152	0.00955606	0.00198571	1.83602	0	-0.408272	4.30994e-14	-2.16595e-14	-4.50076e-15	-97.0997	840.255	54.512	2.25542	0	-0.583489	-0.147077	1.27274	0.0825696
2.16	-0.0138339	0.00669126	0.0013493	1.85067	0	-0.40952	3.11011e-14	-1.50431e-14	-3.03347e-15	-94.5478	826.205	55.2445	2.25709	0	-0.583607	-0.133903	1.17011	0.0782398
2.165	-0.0104073	0.00486418	0.000953461	1.86584	0	-0.410753	1.89299e-14	-8.84745e-15	-1.73425e-15	-91.9604	811.124	56.2309	2.25866	0	-0.583736	-0.119781	1.05651	0.0732423
2.17	-0.0081581	0.00369638	0.000704951	1.88147	0	-0.411966	1.09874e-14	-4.97831e-15	-9.49434e-16	-89.1869	795.232	57.3978	2.26014	0	-0.58387	-0.103557	0.923359	0.0666457
2.175	-0.00670273	0.00295195	0.000547072	1.89748	0	-0.413152	6.05467e-15	-2.66654e-15	-4.94178e-16	-86.059	778.84	58.5767	2.26152	0	-0.584006	-0.085715	0.775726	0.0583425
2.18	-0.0058514	0.00251192	0.000451846	1.91381	0	-0.414309	2.93023e-15	-1.2579e-15	-2.26273e-16	-82.5706	762.395	59.6749	2.26282	0	-0.584139	-0.0667616	0.616427	0.0482495
2.185	-0.00544647	0.00228446	0.000397976	1.93041	0	-0.415432	5.92148e-16	-2.4837e-16	-4.32684e-17	-78.7789	746.219	60.5683	2.26403	0	-0.584261	-0.0475183	0.450109	0.036534
2.19	-0.00542114	0.00222653	0.000373916	1.94721	0	-0.416511	-1.6011e-15	6.57592e-16	1.10434e-16	-74.7394	730.45	61.1356	2.26519	0	-0.584365	-0.0288764	0.282218	0.0236205
2.195	-0.00576232	0.00232169	0.000372937	1.96421	0	-0.417536	-4.30952e-15	1.73635e-15	2.78912e-16	-70.6537	715.29	61.2783	2.26632	0	-0.584444	-0.0118627	0.120096	0.0102886
2.2	-0.00653328	0.00258685	0.000394408	1.98135	0	-0.418503	-8.36779e-15	3.31323e-15	5.05156e-16	-66.6354	700.955	60.919	2.26745	0	-0.584495	0.00393106	-0.0413518	-0.00359383
2.205	-0.00786543	0.00306506	0.000440049	1.99863	0	-0.419407	-1.53294e-14	5.97367e-15	8.57636e-16	-62.7763	687.539	59.9823	2.26858	0	-0.58452	0.018368	-0.20117	-0.0175505
